<?xml version="1.0" encoding="UTF-8" standalone="no"?>
<svg
   xmlns:dc="http://purl.org/dc/elements/1.1/"
   xmlns:cc="http://creativecommons.org/ns#"
   xmlns:rdf="http://www.w3.org/1999/02/22-rdf-syntax-ns#"
   xmlns:svg="http://www.w3.org/2000/svg"
   xmlns="http://www.w3.org/2000/svg"
   xmlns:sodipodi="http://sodipodi.sourceforge.net/DTD/sodipodi-0.dtd"
   xmlns:inkscape="http://www.inkscape.org/namespaces/inkscape"
   version="1.1"
   width="500"
   height="500"
   id="svg1308"
   viewBox="0 0 500 500"
   sodipodi:docname="CSS3_logo_and_wordmark.svg"
   inkscape:version="1.0.2 (e86c870879, 2021-01-15)">
  <metadata
     id="metadata1312">
    <rdf:RDF>
      <cc:Work
         rdf:about="">
        <dc:format>image/svg+xml</dc:format>
        <dc:type
           rdf:resource="http://purl.org/dc/dcmitype/StillImage" />
        <dc:title></dc:title>
      </cc:Work>
    </rdf:RDF>
  </metadata>
  <sodipodi:namedview
     pagecolor="#ffffff"
     bordercolor="#666666"
     borderopacity="1"
     objecttolerance="10"
     gridtolerance="10"
     guidetolerance="10"
     inkscape:pageopacity="0"
     inkscape:pageshadow="2"
     inkscape:window-width="1294"
     inkscape:window-height="704"
     id="namedview1310"
     showgrid="false"
     inkscape:zoom="0.41161616"
     inkscape:cx="163.45953"
     inkscape:cy="259.10735"
     inkscape:window-x="0"
     inkscape:window-y="0"
     inkscape:window-maximized="1"
     inkscape:current-layer="g3013" />
  <defs
     id="defs1220">
    <linearGradient
       id="grad3">
      <stop
         offset="0%"
         stop-color="#6346f2"
         stop-opacity="1.0000"
         id="stop1215" />
      <stop
         offset="100%"
         stop-color="#6287e5"
         stop-opacity="1.0000"
         id="stop1217" />
    </linearGradient>
  </defs>
  <path
     d="M -286.9999,-77.9998 H 1078.9999 V 689.9998 H -286.9999 Z"
     style="fill:none"
     id="path1304" />
  <g
     id="g3013"
     transform="matrix(1.0666666,0,0,1.0666666,190.29359,-1.4999315)">
    <g
       id="g1406"
       transform="matrix(1.1221912,0,0,1.1221912,-231.3064,-107.95743)">
      <polygon
         id="polygon2989"
         points="107.644,470.877 74.633,100.62 437.367,100.62 404.321,470.819 255.778,512 "
         style="fill:#264de4" />
      <polygon
         id="polygon2991"
         points="404.27,130.894 256,130.894 256,480.523 376.03,447.246 "
         style="fill:#2965f1" />
      <polygon
         id="polygon2993"
         points="154.38,313.627 256,313.627 256,268.217 150.31,268.217 "
         style="fill:#ebebeb" />
      <polygon
         id="polygon2995"
         points="146.26,221.716 256,221.716 256,176.305 255.843,176.305 142.132,176.305 "
         style="fill:#ebebeb" />
      <polygon
         id="polygon2997"
         points="201.994,336.333 177.419,336.333 156.409,336.333 162.771,407.634 255.791,433.457 256,433.399 256,386.153 255.801,386.206 205.227,372.55 "
         style="fill:#ebebeb" />
      <polygon
         id="polygon3005"
         points="255.843,268.217 255.843,313.627 311.761,313.627 306.49,372.521 255.843,386.191 255.843,433.435 348.937,407.634 349.62,399.962 360.291,280.411 361.399,268.217 369.597,176.305 255.843,176.305 255.843,221.716 319.831,221.716 315.699,268.217 "
         style="fill:#ffffff" />
    </g>
  </g>
</svg>
