<?xml version="1.0" encoding="UTF-8" standalone="no"?>
<svg
   xmlns:dc="http://purl.org/dc/elements/1.1/"
   xmlns:cc="http://creativecommons.org/ns#"
   xmlns:rdf="http://www.w3.org/1999/02/22-rdf-syntax-ns#"
   xmlns:svg="http://www.w3.org/2000/svg"
   xmlns="http://www.w3.org/2000/svg"
   xmlns:sodipodi="http://sodipodi.sourceforge.net/DTD/sodipodi-0.dtd"
   xmlns:inkscape="http://www.inkscape.org/namespaces/inkscape"
   version="1.1"
   width="500"
   height="500"
   id="svg1308"
   viewBox="0 0 500 500"
   sodipodi:docname="html5-2.svg"
   inkscape:version="1.0.2 (e86c870879, 2021-01-15)">
  <metadata
     id="metadata1312">
    <rdf:RDF>
      <cc:Work
         rdf:about="">
        <dc:format>image/svg+xml</dc:format>
        <dc:type
           rdf:resource="http://purl.org/dc/dcmitype/StillImage" />
        <dc:title></dc:title>
      </cc:Work>
    </rdf:RDF>
  </metadata>
  <sodipodi:namedview
     pagecolor="#ffffff"
     bordercolor="#666666"
     borderopacity="1"
     objecttolerance="10"
     gridtolerance="10"
     guidetolerance="10"
     inkscape:pageopacity="0"
     inkscape:pageshadow="2"
     inkscape:window-width="1294"
     inkscape:window-height="704"
     id="namedview1310"
     showgrid="false"
     inkscape:zoom="0.58211316"
     inkscape:cx="272.04038"
     inkscape:cy="272.84913"
     inkscape:window-x="0"
     inkscape:window-y="0"
     inkscape:window-maximized="1"
     inkscape:current-layer="svg1308" />
  <defs
     id="defs1220">
    <linearGradient
       id="grad3">
      <stop
         offset="0%"
         stop-color="#6346f2"
         stop-opacity="1.0000"
         id="stop1215" />
      <stop
         offset="100%"
         stop-color="#6287e5"
         stop-opacity="1.0000"
         id="stop1217" />
    </linearGradient>
  </defs>
  <g
     id="g1681"
     transform="matrix(0.2482284,0,0,0.2482284,208.07401,62.804836)">
    <path
       d="M -286.9999,-77.9998 H 1078.9999 V 689.9998 H -286.9999 Z"
       style="fill:none"
       id="path1304" />
    <g
       id="g3013"
       transform="matrix(1.0666666,0,0,1.0666666,190.29359,-1.4999315)">
      <g
         id="g1656"
         transform="matrix(4.5772306,0,0,4.5772306,-1214.8906,-693.65338)">
        <path
           d="M 107.644,470.877 74.634,100.62 H 437.367 L 404.321,470.819 255.778,512 Z"
           id="path1627"
           style="fill:#e44f26;fill-opacity:1" />
        <path
           d="M 256,480.522 376.03,447.246 404.27,130.894 H 256 Z"
           id="path1629"
           style="fill:#f1662a;fill-opacity:1" />
        <g
           fill="#ebebeb"
           id="g1633">
          <path
             d="m 256,268.217 h -60.09 l -4.15,-46.501 H 256 V 176.305 H 142.132 l 1.087,12.183 11.161,125.139 H 256 Z m 0,117.936 -0.198,0.053 -50.575,-13.656 -3.233,-36.217 h -45.585 l 6.362,71.301 93.02,25.823 0.209,-0.058 z"
             id="path1631" />
        </g>
        <g
           fill="#ffffff"
           id="g1639">
          <path
             d="m 255.844,268.217 v 45.41 h 55.917 l -5.271,58.894 -50.646,13.67 v 47.244 l 93.093,-25.801 0.683,-7.672 10.671,-119.551 1.108,-12.194 h -12.237 z m 0,-91.912 v 45.411 h 109.687 l 0.911,-10.207 2.069,-23.021 1.086,-12.183 z"
             id="path1637" />
        </g>
      </g>
    </g>
  </g>
</svg>
